HIERARCHY
ROOT Hips
{
	OFFSET 0.00000 0.00000 0.00000
	CHANNELS 6 Xposition Yposition Zposition Zrotation Yrotation Xrotation 
	JOINT LHipJoint
	{
		OFFSET 0 0 0
		CHANNELS 3 Zrotation Yrotation Xrotation
		JOINT LeftUpLeg
		{
			OFFSET 1.32989 -1.57253 0.78074
			CHANNELS 3 Zrotation Yrotation Xrotation
			JOINT LeftLeg
			{
				OFFSET 2.24323 -6.16323 0.00000
				CHANNELS 3 Zrotation Yrotation Xrotation
				JOINT LeftFoot
				{
					OFFSET 2.32677 -6.39275 0.00000
					CHANNELS 3 Zrotation Yrotation Xrotation
					JOINT LeftToeBase
					{
						OFFSET 0.18686 -0.51340 1.95973
						CHANNELS 3 Zrotation Yrotation Xrotation
						End Site
						{
							OFFSET 0.00000 -0.00000 1.02033
						}
					}
				}
			}
		}
	}
	JOINT RHipJoint
	{
		OFFSET 0 0 0
		CHANNELS 3 Zrotation Yrotation Xrotation
		JOINT RightUpLeg
		{
			OFFSET -1.27392 -1.57253 0.78074
			CHANNELS 3 Zrotation Yrotation Xrotation
			JOINT RightLeg
			{
				OFFSET -2.19978 -6.04385 0.00000
				CHANNELS 3 Zrotation Yrotation Xrotation
				JOINT RightFoot
				{
					OFFSET -2.29380 -6.30216 0.00000
					CHANNELS 3 Zrotation Yrotation Xrotation
					JOINT RightToeBase
					{
						OFFSET -0.24624 -0.67655 1.94854
						CHANNELS 3 Zrotation Yrotation Xrotation
						End Site
						{
							OFFSET -0.00000 -0.00000 1.03267
						}
					}
				}
			}
		}
	}
	JOINT LowerBack
	{
		OFFSET 0 0 0
		CHANNELS 3 Zrotation Yrotation Xrotation
		JOINT Spine
		{
			OFFSET -0.05982 2.08655 0.02100
			CHANNELS 3 Zrotation Yrotation Xrotation
			JOINT Spine1
			{
				OFFSET 0.04735 2.08455 -0.01795
				CHANNELS 3 Zrotation Yrotation Xrotation
				JOINT Neck
				{
					OFFSET 0 0 0
					CHANNELS 3 Zrotation Yrotation Xrotation
					JOINT Neck1
					{
						OFFSET -0.10038 1.43781 0.03084
						CHANNELS 3 Zrotation Yrotation Xrotation
						JOINT Head
						{
							OFFSET 0.07701 1.43632 -0.18495
							CHANNELS 3 Zrotation Yrotation Xrotation
							End Site
							{
								OFFSET 0.02744 1.45633 -0.07361
							}
						}
					}
				}
				JOINT LeftShoulder
				{
					OFFSET 0 0 0
					CHANNELS 3 Zrotation Yrotation Xrotation
					JOINT LeftArm
					{
						OFFSET 2.75061 0.74389 0.25227
						CHANNELS 3 Zrotation Yrotation Xrotation
						JOINT LeftForeArm
						{
							OFFSET 4.36901 -0.00000 0.00000
							CHANNELS 3 Zrotation Yrotation Xrotation
							JOINT LeftHand
							{
								OFFSET 3.21737 -0.00000 -0.00000
								CHANNELS 3 Zrotation Yrotation Xrotation
								JOINT LeftFingerBase
								{
									OFFSET 0 0 0
									CHANNELS 3 Zrotation Yrotation Xrotation
									JOINT LeftHandIndex1
									{
										OFFSET 0.56431 -0.00000 0.00000
										CHANNELS 3 Zrotation Yrotation Xrotation
										End Site
										{
											OFFSET 0.45496 -0.00000 0.00000
										}
									}
								}
								JOINT LThumb
								{
									OFFSET 0 0 0
									CHANNELS 3 Zrotation Yrotation Xrotation
									End Site
									{
										OFFSET 0.46191 -0.00000 0.46191
									}
								}
							}
						}
					}
				}
				JOINT RightShoulder
				{
					OFFSET 0 0 0
					CHANNELS 3 Zrotation Yrotation Xrotation
					JOINT RightArm
					{
						OFFSET -2.97379 0.79094 0.48377
						CHANNELS 3 Zrotation Yrotation Xrotation
						JOINT RightForeArm
						{
							OFFSET -4.34118 -0.00000 -0.00000
							CHANNELS 3 Zrotation Yrotation Xrotation
							JOINT RightHand
							{
								OFFSET -3.09531 -0.00000 0.00000
								CHANNELS 3 Zrotation Yrotation Xrotation
								JOINT RightFingerBase
								{
									OFFSET 0 0 0
									CHANNELS 3 Zrotation Yrotation Xrotation
									JOINT RightHandIndex1
									{
										OFFSET -0.59745 -0.00000 0.00000
										CHANNELS 3 Zrotation Yrotation Xrotation
										End Site
										{
											OFFSET -0.48168 -0.00000 0.00000
										}
									}
								}
								JOINT RThumb
								{
									OFFSET 0 0 0
									CHANNELS 3 Zrotation Yrotation Xrotation
									End Site
									{
										OFFSET -0.48903 -0.00000 0.48903
									}
								}
							}
						}
					}
				}
			}
		}
	}
}
MOTION
Frames: 5
Frame Time: .0083333
12.7778 13.6881 -17.4231 -366.8200 -10.8034 27.9392 0.0000 0.0000 0.0000 12.5343 -6.6798 -43.9431 10.0275 17.4253 59.5803 3.1032 5.8246 -35.6794 7.7768 -15.9526 -51.7546 0.0000 0.0000 0.0000 -7.0767 1.8030 -22.5687 -9.0577 -16.8447 56.2895 0.0494 -4.8467 -4.7720 -0.9678 6.2633 -17.5503 3.0490 3.1398 6.4493 4.7035 4.3472 3.3217 2.8528 2.1532 -0.3189 -8.2674 -4.7334 -5.9735 1.0431 -5.5922 12.8588 1.3107 -3.0497 5.1269 0.0000 0.0000 0.0000 -21.0081 20.1671 -27.4146 25.2199 -36.4279 -8.4201 -0.0000 0.0000 -51.3967 42.3176 48.6904 34.3690 -7.1250 0.0000 -0.0000 -2.3008 86.9607 -2.1756 0.0000 0.0000 0.0000 20.7164 -9.3594 -21.1409 -20.9343 31.7516 -6.0154 0.0000 -0.0000 -14.4570 -37.3835 20.8376 -15.2060 7.1250 -0.0000 -0.0000 -5.4754 -4.4850 -5.0540
12.4305 13.9067 -17.2879 -366.2090 -5.5300 29.2025 0.0000 0.0000 0.0000 15.0730 -9.8227 -44.2198 8.6500 16.5772 54.8717 2.6764 4.9823 -32.9647 7.5343 -15.7658 -50.8672 0.0000 0.0000 0.0000 -5.8205 2.2629 -22.4745 -7.9361 -16.0721 52.3323 -0.0152 -5.0852 -7.7352 -0.9607 6.2410 -17.4852 2.6750 3.2802 7.8320 4.4846 4.5644 3.7308 2.7511 2.2574 -0.6787 -8.6555 -5.5743 -5.9975 2.6042 -6.8672 11.8730 1.7738 -3.5758 4.9500 0.0000 0.0000 0.0000 -21.7696 20.5220 -29.4305 24.3280 -35.5092 -7.8962 -0.0000 0.0000 -51.3588 43.1369 49.3161 35.3952 -7.1250 0.0000 -0.0000 -1.7618 87.8785 -1.6954 0.0000 0.0000 0.0000 20.8325 -7.0306 -21.4857 -21.0139 31.8446 -6.0573 0.0000 -0.0000 -13.6150 -36.6433 21.5597 -15.2877 7.1250 -0.0000 -0.0000 -4.8879 -3.8446 -4.5661
12.0357 14.0859 -17.1720 -365.3700 -0.0910 30.7475 0.0000 0.0000 0.0000 18.1163 -13.2465 -44.6780 7.1244 15.4358 49.3433 1.8355 6.9709 -28.8913 7.6412 -15.8489 -51.2599 0.0000 0.0000 0.0000 -5.1198 3.4036 -22.3374 -6.7893 -15.1519 48.0729 -0.1517 -5.5264 -11.3945 -0.7975 5.7002 -15.9170 2.1974 3.2270 9.4838 4.4056 4.5210 4.1135 2.8563 2.2291 -1.2206 -9.2644 -6.2691 -6.1646 4.1569 -7.8882 10.7191 2.2805 -3.9961 4.7644 -0.0000 -0.0000 0.0000 -22.8882 21.0117 -31.0414 23.7341 -34.8818 -7.5539 -0.0000 0.0000 -51.6630 44.2699 49.9925 36.7481 -7.1250 0.0000 -0.0000 3.7763 88.9714 3.7080 -0.0000 -0.0000 0.0000 20.7673 -4.2965 -21.9429 -21.2002 32.0613 -6.1559 0.0000 -0.0000 -13.4680 -36.4055 21.9327 -15.3994 7.1250 -0.0000 -0.0000 -4.6734 -3.4774 -4.3962
11.6140 14.3547 -17.0197 -364.1300 5.6196 32.7900 0.0000 0.0000 0.0000 20.0397 -15.2788 -46.8493 5.9126 14.3431 44.6301 0.7183 10.3971 -22.9630 8.1482 -16.2272 -53.0947 0.0000 0.0000 0.0000 -4.8000 5.1728 -21.9400 -5.5613 -13.9893 43.1946 -0.3527 -6.7016 -15.6445 -0.7913 5.6783 -15.8537 2.0517 2.9357 11.1656 4.3261 4.1877 4.4184 2.8143 2.0605 -1.8157 -10.0369 -6.9670 -6.4219 5.4996 -8.8477 9.7450 2.7425 -4.4115 4.6672 0.0000 0.0000 0.0000 -24.0887 21.5761 -32.0961 23.5623 -34.6980 -7.4559 -0.0000 0.0000 -52.3271 45.4368 50.4069 38.0407 -7.1250 0.0000 -0.0000 63.7214 89.6641 63.4199 0.0000 0.0000 0.0000 20.3466 -1.5998 -22.3035 -21.4698 32.3726 -6.2996 0.0000 -0.0000 -14.0030 -35.9479 21.8368 -15.0953 7.1250 -0.0000 -0.0000 -4.4125 -3.7124 -4.1300
11.1801 14.6060 -16.8553 -362.5420 11.3755 35.3293 0.0000 0.0000 0.0000 22.9391 -18.7565 -49.1120 4.8617 13.2263 40.2218 -0.1482 13.8649 -17.8830 7.5109 -15.7475 -50.7812 0.0000 0.0000 0.0000 -5.2988 8.0387 -21.7113 -4.5262 -12.8295 38.7336 -0.5069 -8.6570 -19.2855 -1.8791 8.6096 -24.5814 2.4652 2.6428 12.7749 4.1136 3.9114 4.6559 2.3303 1.9248 -2.3892 -10.2998 -7.7333 -6.6283 6.5466 -9.8992 8.3299 3.0299 -4.8760 4.4152 0.0000 -0.0000 0.0000 -24.6837 21.3765 -32.7398 23.5136 -34.6456 -7.4282 -0.0000 0.0000 -52.8194 46.1479 50.6670 38.8377 -7.1250 0.0000 -0.0000 132.2882 -89.4154 -132.7222 0.0000 -0.0000 0.0000 19.9319 0.2007 -22.5740 -21.9544 32.9254 -6.5610 0.0000 -0.0000 -14.6540 -35.4699 21.3640 -14.5505 7.1250 -0.0000 -0.0000 -4.2054 -4.3837 -3.8823
